<svg width="24" height="24" viewBox="0 0 24 24" fill="none" xmlns="http://www.w3.org/2000/svg">
<g id="VK">
<path id="Vector" d="M12.9825 20C5.46596 20 1.17864 14.7447 1 6H4.76515C4.88882 12.4184 7.66459 15.1371 9.86321 15.6977V6H13.4085V11.5355C15.5796 11.2973 17.8607 8.77477 18.6302 6H22.1755C21.8855 7.43908 21.3075 8.80165 20.4776 10.0025C19.6477 11.2033 18.5837 12.2166 17.3523 12.979C18.7269 13.6756 19.941 14.6615 20.9145 15.8717C21.888 17.082 22.5988 18.489 23 20H19.0974C18.7373 18.6876 18.0054 17.5128 16.9934 16.6228C15.9814 15.7328 14.7343 15.1673 13.4085 14.997V20H12.9825Z" fill="white"/>
</g>
</svg>
